<svg width="9" height="11" viewBox="0 0 9 11" fill="none" xmlns="http://www.w3.org/2000/svg">
<path d="M3.54759 9.97591C3.86293 10.1287 4.16122 10.2051 4.44247 10.2051C6.04474 10.2051 6.84588 9.40538 6.84588 7.80599C6.84588 7.26172 6.75852 6.83203 6.58381 6.51693C6.46875 6.30686 6.33771 6.13021 6.1907 5.98698C6.04368 5.84375 5.89986 5.73275 5.75923 5.65397C5.61861 5.5752 5.44709 5.51552 5.24467 5.47494C5.04226 5.43435 4.86328 5.40929 4.70774 5.39974C4.5522 5.39019 4.35085 5.38542 4.10369 5.38542C3.79261 5.38542 3.57741 5.40929 3.4581 5.45703C3.4581 5.71007 3.45703 6.08963 3.4549 6.5957C3.45277 7.10178 3.4517 7.47895 3.4517 7.72721C3.4517 7.76541 3.44957 7.92654 3.44531 8.21061C3.44105 8.49468 3.43999 8.72504 3.44212 8.90169C3.44425 9.07834 3.45384 9.27767 3.47088 9.49967C3.48793 9.72168 3.51349 9.88043 3.54759 9.97591ZM3.4581 4.63346C3.63707 4.66688 3.86932 4.68359 4.15483 4.68359C4.50426 4.68359 4.80895 4.65256 5.06889 4.59049C5.32884 4.52843 5.56321 4.4222 5.77202 4.27181C5.98082 4.12142 6.13956 3.90777 6.24822 3.63086C6.35689 3.35395 6.41122 3.01497 6.41122 2.61393C6.41122 2.27973 6.34943 1.9873 6.22585 1.73665C6.10227 1.486 5.93395 1.29026 5.72088 1.14941C5.50781 1.00857 5.2777 0.904731 5.03054 0.837891C4.78338 0.77105 4.51918 0.73763 4.23793 0.73763C4.02486 0.73763 3.74787 0.768663 3.40696 0.830729C3.40696 1.06944 3.41548 1.4299 3.43253 1.91211C3.44957 2.39431 3.4581 2.75716 3.4581 3.00065C3.4581 3.12956 3.45703 3.32053 3.4549 3.57357C3.45277 3.82661 3.4517 4.01519 3.4517 4.13932C3.4517 4.35894 3.45384 4.52365 3.4581 4.63346ZM0 11L0.0127841 10.3268C0.0767045 10.3077 0.257812 10.2695 0.556108 10.2122C0.854403 10.1549 1.08026 10.0905 1.23366 10.0189C1.26349 9.96159 1.29013 9.89714 1.31357 9.82552C1.337 9.75391 1.35511 9.67394 1.3679 9.58561C1.38068 9.49729 1.3924 9.41971 1.40305 9.35286C1.41371 9.28602 1.4201 9.19651 1.42223 9.08431C1.42436 8.97211 1.42543 8.89095 1.42543 8.84082V8.37174C1.42543 3.68338 1.37855 1.23655 1.2848 1.03125C1.26776 0.993056 1.22088 0.958442 1.14418 0.927409C1.06747 0.896376 0.972656 0.870117 0.85973 0.848633C0.746804 0.827148 0.641335 0.810438 0.543324 0.798503C0.445312 0.786567 0.341974 0.775825 0.23331 0.766276C0.124645 0.756727 0.0596591 0.749566 0.0383523 0.744792L0.0127841 0.150391C0.430398 0.140842 1.15483 0.11339 2.18608 0.0680339C3.21733 0.022678 4.01207 0 4.57031 0C4.66832 0 4.81428 0.00119358 5.00817 0.00358073C5.20206 0.00596788 5.34588 0.00716146 5.43963 0.00716146C5.73793 0.00716146 6.02876 0.0381944 6.31214 0.10026C6.59553 0.162326 6.86932 0.262587 7.13352 0.401042C7.39773 0.539497 7.62784 0.708984 7.82386 0.909505C8.01989 1.11003 8.17756 1.35948 8.29687 1.65788C8.41619 1.95627 8.47585 2.28451 8.47585 2.64258C8.47585 2.89084 8.4407 3.11882 8.37038 3.3265C8.30007 3.53418 8.21697 3.70605 8.12109 3.84212C8.02521 3.97819 7.88778 4.11545 7.70881 4.25391C7.52983 4.39236 7.37429 4.49978 7.24219 4.57617C7.11009 4.65256 6.93111 4.74805 6.70526 4.86263C7.36151 5.02973 7.90803 5.34961 8.34482 5.82227C8.78161 6.29492 9 6.88694 9 7.59831C9 8.07574 8.92543 8.50423 8.77628 8.88379C8.62713 9.26335 8.42791 9.57487 8.17862 9.81836C7.92933 10.0618 7.6353 10.266 7.29652 10.4307C6.95774 10.5954 6.60937 10.7112 6.25142 10.778C5.89347 10.8448 5.51847 10.8783 5.12642 10.8783C4.93892 10.8783 4.65767 10.8711 4.28267 10.8568C3.90767 10.8424 3.62642 10.8353 3.43892 10.8353C2.98722 10.8353 2.3331 10.8615 1.47656 10.9141C0.620028 10.9666 0.127841 10.9952 0 11Z" fill="white"/>
</svg>
