<svg width="43" height="45" viewBox="0 0 43 45" fill="none" xmlns="http://www.w3.org/2000/svg">
<path d="M42.5167 10.4833L32.5167 0.483333C32.3631 0.333415 32.182 0.214572 31.9833 0.133333C31.7767 0.0493615 31.5563 0.00416346 31.3333 0H18C16.6739 0 15.4021 0.526784 14.4645 1.46447C13.5268 2.40215 13 3.67392 13 5V25C13 26.3261 13.5268 27.5979 14.4645 28.5355C15.4021 29.4732 16.6739 30 18 30H38C39.3261 30 40.5979 29.4732 41.5355 28.5355C42.4732 27.5979 43 26.3261 43 25V11.6667C43.0013 11.4473 42.9592 11.2299 42.8763 11.0268C42.7933 10.8238 42.6711 10.6391 42.5167 10.4833ZM23 3.33333H29.6667V6.66667H23V3.33333ZM33 26.6667H23V21.6667C23 21.2246 23.1756 20.8007 23.4882 20.4882C23.8007 20.1756 24.2246 20 24.6667 20H31.3333C31.7754 20 32.1993 20.1756 32.5118 20.4882C32.8244 20.8007 33 21.2246 33 21.6667V26.6667ZM39.6667 25C39.6667 25.442 39.4911 25.866 39.1785 26.1785C38.8659 26.4911 38.442 26.6667 38 26.6667H36.3333V21.6667C36.3333 20.3406 35.8065 19.0688 34.8689 18.1311C33.9312 17.1934 32.6594 16.6667 31.3333 16.6667H24.6667C23.3406 16.6667 22.0688 17.1934 21.1311 18.1311C20.1935 19.0688 19.6667 20.3406 19.6667 21.6667V26.6667H18C17.558 26.6667 17.134 26.4911 16.8215 26.1785C16.5089 25.866 16.3333 25.442 16.3333 25V5C16.3333 4.55797 16.5089 4.13405 16.8215 3.82149C17.134 3.50893 17.558 3.33333 18 3.33333H19.6667V8.33333C19.6667 8.77536 19.8423 9.19928 20.1548 9.51184C20.4674 9.8244 20.8913 10 21.3333 10H31.3333C31.7754 10 32.1993 9.8244 32.5118 9.51184C32.8244 9.19928 33 8.77536 33 8.33333V5.68333L39.6667 12.35V25Z" fill="white"/>
<rect y="18" width="27" height="27" rx="13.5" fill="url(#paint0_linear_217_712)"/>
<path fill-rule="evenodd" clip-rule="evenodd" d="M12.7826 30.7826V26.7174C12.7826 26.3212 13.1038 26 13.5 26C13.8962 26 14.2174 26.3212 14.2174 26.7174V30.7826H18.2826C18.6788 30.7826 19 31.1038 19 31.5C19 31.8962 18.6788 32.2174 18.2826 32.2174H14.2174V36.2826C14.2174 36.6788 13.8962 37 13.5 37C13.1038 37 12.7826 36.6788 12.7826 36.2826V32.2174H8.71739C8.32119 32.2174 8 31.8962 8 31.5C8 31.1038 8.32119 30.7826 8.71739 30.7826H12.7826Z" fill="#C37F1E"/>
<defs>
<linearGradient id="paint0_linear_217_712" x1="12.8438" y1="30.7429" x2="22.927" y2="42.3703" gradientUnits="userSpaceOnUse">
<stop stop-color="#FFE05F"/>
<stop offset="0.175" stop-color="#FFD24E"/>
<stop offset="0.464" stop-color="#FFC038"/>
<stop offset="0.743" stop-color="#FFB52B"/>
<stop offset="1" stop-color="#FFB127"/>
</linearGradient>
</defs>
</svg>
