<svg width="18" height="18" viewBox="0 0 18 18" fill="none" xmlns="http://www.w3.org/2000/svg">
<path fill-rule="evenodd" clip-rule="evenodd" d="M7.05405 14.1081C3.15821 14.1081 0 10.9499 0 7.05405C0 3.15821 3.15821 0 7.05405 0C10.9499 0 14.1081 3.15821 14.1081 7.05405C14.1081 8.73914 13.5173 10.2862 12.5314 11.4994L17.7863 16.7543C18.0712 17.0393 18.0712 17.5013 17.7863 17.7863C17.5013 18.0712 17.0393 18.0712 16.7543 17.7863L11.4994 12.5314C10.2862 13.5173 8.73914 14.1081 7.05405 14.1081ZM7.05405 12.6486C10.1439 12.6486 12.6486 10.1439 12.6486 7.05405C12.6486 3.96424 10.1439 1.45946 7.05405 1.45946C3.96424 1.45946 1.45946 3.96424 1.45946 7.05405C1.45946 10.1439 3.96424 12.6486 7.05405 12.6486Z" fill="white"/>
</svg>
