<svg width="34" height="34" viewBox="0 0 34 34" fill="none" xmlns="http://www.w3.org/2000/svg">
<path d="M32.4324 18.9877V15.0122L29.0309 14.3952C28.7146 12.9277 28.134 11.561 27.3458 10.3393L29.3179 7.49307L26.5068 4.68196L23.6605 6.65409C22.4388 5.8659 21.0721 5.28526 19.6047 4.96893L18.9876 1.56743H15.0122L14.395 4.96893C12.9276 5.28526 11.5609 5.8659 10.3392 6.65409L7.49295 4.68196L4.68184 7.49307L6.65397 10.3393C5.86578 11.561 5.28513 12.9277 4.96881 14.3952L1.56731 15.0122V18.9877L4.96881 19.6048C5.28513 21.0722 5.86578 22.439 6.65397 23.6607L4.68184 26.5069L7.49295 29.318L10.3392 27.3459C11.5609 28.1341 12.9276 28.7147 14.3951 29.0311L15.0122 32.4326H18.9876L19.6047 29.0311C21.0721 28.7147 22.4388 28.1341 23.6605 27.3459L26.5068 29.318L29.3179 26.5069L27.3458 23.6607C28.134 22.439 28.7146 21.0723 29.0309 19.6048L32.4324 18.9877Z" fill="url(#paint0_linear_218_714)"/>
<path d="M18.9878 33.0756H15.0122C14.7014 33.0756 14.4351 32.8533 14.3796 32.5475L13.8376 29.5609C12.6156 29.2539 11.4486 28.7691 10.3585 28.1154L7.85889 29.8467C7.60363 30.0231 7.25762 29.9923 7.03815 29.7726L4.22713 26.9618C4.00734 26.7421 3.97626 26.3967 4.15334 26.1411L5.88492 23.6419C5.23059 22.5505 4.7455 21.3837 4.43874 20.1624L1.45252 19.6204C1.1467 19.5646 0.924408 19.2983 0.924408 18.9875V15.0125C0.924408 14.7017 1.1467 14.4354 1.45252 14.3796L4.43874 13.8376C4.7455 12.6163 5.23059 11.4495 5.88492 10.3581L4.15334 7.85889C3.97626 7.60331 4.00734 7.25794 4.22713 7.03815L7.03815 4.22744C7.25825 4.00828 7.60363 3.97689 7.85889 4.15334L10.3585 5.88461C11.4486 5.23091 12.6156 4.74613 13.8376 4.43906L14.3796 1.45252C14.4351 1.1467 14.7014 0.924408 15.0122 0.924408H18.9878C19.2986 0.924408 19.5649 1.1467 19.6204 1.45252L20.1621 4.43906C21.3837 4.74613 22.5508 5.23091 23.6415 5.88461L26.1408 4.15334C26.3964 3.97626 26.7414 4.00766 26.9615 4.22744L29.7726 7.03815C29.9923 7.25794 30.0234 7.60331 29.8463 7.85889L28.1148 10.3581C28.7691 11.4495 29.2542 12.6163 29.5609 13.8376L32.5475 14.3796C32.8533 14.4354 33.0756 14.7017 33.0756 15.0125V18.9875C33.0756 19.2983 32.8533 19.5646 32.5475 19.6204L29.5609 20.1624C29.2542 21.3837 28.7691 22.5505 28.1148 23.6419L29.8463 26.1411C30.0234 26.3967 29.9923 26.7421 29.7726 26.9618L26.9615 29.7726C26.7421 29.9923 26.3967 30.0231 26.1408 29.8467L23.6415 28.1154C22.5508 28.7691 21.3837 29.2539 20.1621 29.5609L19.6204 32.5475C19.5649 32.8533 19.2986 33.0756 18.9878 33.0756ZM15.5491 31.7895H18.4509L18.9721 28.916C19.0185 28.6598 19.2148 28.457 19.4691 28.4024C20.8324 28.1085 22.1253 27.571 23.3122 26.8055C23.5307 26.6642 23.813 26.6692 24.0268 26.8174L26.4318 28.4834L28.4837 26.4318L26.8174 24.0268C26.6692 23.8133 26.6645 23.5307 26.8055 23.3122C27.5713 22.1247 28.1085 20.8318 28.4024 19.4691C28.4573 19.2148 28.6601 19.0182 28.916 18.9718L31.7895 18.4506V15.5494L28.916 15.0282C28.6601 14.9818 28.4573 14.7852 28.4024 14.5309C28.1085 13.1682 27.5713 11.8753 26.8055 10.6878C26.6645 10.4693 26.6692 10.1867 26.8174 9.97321L28.4837 7.56815L26.4318 5.51663L24.0268 7.18258C23.813 7.33078 23.5307 7.3358 23.3122 7.19451C22.1253 6.42904 20.8324 5.89151 19.4691 5.59763C19.2148 5.543 19.0185 5.34017 18.9721 5.08397L18.4509 2.21045H15.5491L15.0276 5.08397C14.9811 5.34017 14.7849 5.543 14.5306 5.59763C13.167 5.89151 11.8743 6.42904 10.6878 7.19389C10.4699 7.33643 10.187 7.33078 9.97321 7.18258L7.56783 5.51663L5.516 7.56815L7.18227 9.97321C7.33047 10.1867 7.33518 10.4693 7.1942 10.6878C6.42841 11.8753 5.8912 13.1682 5.59732 14.5309C5.54237 14.7852 5.33954 14.9818 5.08365 15.0282L2.21045 15.5494V18.4506L5.08365 18.9718C5.33954 19.0182 5.54237 19.2148 5.59732 19.4691C5.8912 20.8318 6.42841 22.1247 7.1942 23.3122C7.33518 23.5307 7.33047 23.8133 7.18227 24.0268L5.516 26.4318L7.56783 28.4834L9.97321 26.8174C10.187 26.6692 10.4699 26.6636 10.6878 26.8061C11.8743 27.571 13.167 28.1085 14.5306 28.4024C14.7849 28.457 14.9811 28.6598 15.0276 28.916L15.5491 31.7895Z" fill="#0B071B"/>
<path d="M17 26.1933C22.0773 26.1933 26.1933 22.0773 26.1933 17C26.1933 11.9227 22.0773 7.80666 17 7.80666C11.9227 7.80666 7.80667 11.9227 7.80667 17C7.80667 22.0773 11.9227 26.1933 17 26.1933Z" fill="#343641"/>
<path d="M17 26.8362C11.5761 26.8362 7.16344 22.4236 7.16344 17C7.16344 11.5764 11.5761 7.16374 17 7.16374C22.4236 7.16374 26.8363 11.5764 26.8363 17C26.8363 22.4236 22.4236 26.8362 17 26.8362ZM17 8.44979C12.2853 8.44979 8.44948 12.2853 8.44948 17C8.44948 21.7147 12.2853 25.5502 17 25.5502C21.7147 25.5502 25.5502 21.7147 25.5502 17C25.5502 12.2853 21.7147 8.44979 17 8.44979Z" fill="#343641"/>
<path d="M12.5415 20.8311C12.4787 20.8311 12.4147 20.8217 12.3516 20.8022C12.0122 20.698 11.8219 20.3376 11.9268 19.9985L13.8951 13.6222C13.9783 13.3528 14.2276 13.1689 14.5095 13.1689C14.7915 13.1689 15.0408 13.3528 15.124 13.6222L17.092 19.9985C17.1966 20.3376 17.0066 20.698 16.6672 20.8022C16.3284 20.9071 15.9683 20.7175 15.8631 20.3778L14.5095 15.9921L13.1557 20.3778C13.0703 20.6541 12.816 20.8311 12.5415 20.8311Z" fill="white"/>
<path d="M15.9978 19.2763H13.0213C12.6662 19.2763 12.3783 18.9887 12.3783 18.6333C12.3783 18.2779 12.6662 17.9903 13.0213 17.9903H15.9978C16.3529 17.9903 16.6408 18.2779 16.6408 18.6333C16.6408 18.9887 16.3529 19.2763 15.9978 19.2763Z" fill="white"/>
<path d="M20.499 20.8311C20.1438 20.8311 19.8559 20.5435 19.8559 20.1881V13.8119C19.8559 13.4565 20.1438 13.1689 20.499 13.1689C20.8541 13.1689 21.142 13.4565 21.142 13.8119V20.1881C21.142 20.5435 20.8541 20.8311 20.499 20.8311Z" fill="white"/>
<path d="M21.4585 20.8311H19.5394C19.1843 20.8311 18.8964 20.5435 18.8964 20.1881C18.8964 19.8327 19.1843 19.5451 19.5394 19.5451H21.4585C21.8136 19.5451 22.1015 19.8327 22.1015 20.1881C22.1015 20.5435 21.8136 20.8311 21.4585 20.8311ZM21.4585 14.4549H19.5394C19.1843 14.4549 18.8964 14.1673 18.8964 13.8119C18.8964 13.4565 19.1843 13.1689 19.5394 13.1689H21.4585C21.8136 13.1689 22.1015 13.4565 22.1015 13.8119C22.1015 14.1673 21.8136 14.4549 21.4585 14.4549Z" fill="white"/>
<defs>
<linearGradient id="paint0_linear_218_714" x1="1.56731" y1="1.56743" x2="50.5265" y2="3.07036" gradientUnits="userSpaceOnUse">
<stop offset="0.166155" stop-color="#72FFFF"/>
<stop offset="1" stop-color="#247881" stop-opacity="0"/>
</linearGradient>
</defs>
</svg>
