<svg width="13" height="12" viewBox="0 0 13 12" fill="none" xmlns="http://www.w3.org/2000/svg">
<path d="M12.0465 5.4C11.6331 5.4 11.2965 5.13071 11.2965 4.8V1.8C11.2965 0.807874 10.2867 0 9.04652 0C8.63313 0 8.29652 0.269291 8.29652 0.6C8.29652 0.930709 8.63313 1.2 9.04652 1.2C9.4599 1.2 9.79652 1.46929 9.79652 1.8V4.8C9.79652 5.26299 10.0209 5.6811 10.3812 6C10.0209 6.3189 9.79652 6.73701 9.79652 7.2V10.2C9.79652 10.5307 9.4599 10.8 9.04652 10.8C8.63313 10.8 8.29652 11.0693 8.29652 11.4C8.29652 11.7307 8.63313 12 9.04652 12C10.2867 12 11.2965 11.1921 11.2965 10.2V7.2C11.2965 6.86929 11.6331 6.6 12.0465 6.6C12.4599 6.6 12.7965 6.33071 12.7965 6C12.7965 5.66929 12.4599 5.4 12.0465 5.4ZM3.79652 1.8C3.79652 1.46929 4.13313 1.2 4.54652 1.2C4.9599 1.2 5.29652 0.930709 5.29652 0.6C5.29652 0.269291 4.9599 0 4.54652 0C3.30636 0 2.29652 0.807874 2.29652 1.8V4.8C2.29652 5.13071 1.9599 5.4 1.54652 5.4C1.13313 5.4 0.796516 5.66929 0.796516 6C0.796516 6.33071 1.13313 6.6 1.54652 6.6C1.9599 6.6 2.29652 6.86929 2.29652 7.2V10.2C2.29652 11.1921 3.30636 12 4.54652 12C4.9599 12 5.29652 11.7307 5.29652 11.4C5.29652 11.0693 4.9599 10.8 4.54652 10.8C4.13313 10.8 3.79652 10.5307 3.79652 10.2V7.2C3.79652 6.73701 3.57211 6.3189 3.21187 6C3.57211 5.6811 3.79652 5.26299 3.79652 4.8V1.8Z" fill="white"/>
</svg>
