<svg width="18" height="17" viewBox="0 0 18 17" fill="none" xmlns="http://www.w3.org/2000/svg">
<path d="M16.9018 15.4982H1.09824C0.774193 15.4982 0.5 15.7724 0.5 16.0964C0.5 16.4205 0.774193 16.6946 1.09824 16.6946H16.9018C17.2258 16.6946 17.5 16.4205 17.5 16.0964C17.5 15.7724 17.2258 15.4982 16.9018 15.4982ZM0.524927 10.2636L0.5 13.0803C0.5 13.2298 0.549854 13.4043 0.674487 13.504C0.79912 13.6037 0.94868 13.6785 1.09824 13.6785L3.91496 13.6536C4.06452 13.6536 4.21408 13.5788 4.33871 13.4791L14.0103 3.80755C14.2346 3.58321 14.2346 3.18438 14.0103 2.96004L11.2185 0.168255C10.9941 -0.0560851 10.5953 -0.0560851 10.371 0.168255L8.42669 2.11254L0.699414 9.83981C0.57478 9.96444 0.524927 10.114 0.524927 10.2636ZM12.739 3.3838L11.6422 4.48057L9.69795 2.53629L10.7947 1.43952L12.739 3.3838ZM1.72141 10.5128L8.85044 3.3838L10.7947 5.32808L3.66569 12.4571H1.72141V10.5128Z" fill="white"/>
</svg>
