<svg width="12" height="12" viewBox="0 0 12 12" fill="none" xmlns="http://www.w3.org/2000/svg">
<path d="M5.99994 0C7.18663 0 8.34666 0.351894 9.33336 1.01118C10.3201 1.67047 11.0891 2.60754 11.5432 3.7039C11.9973 4.80026 12.1162 6.00665 11.8846 7.17054C11.6531 8.33443 11.0817 9.40352 10.2426 10.2426C9.40346 11.0818 8.33436 11.6532 7.17048 11.8847C6.00659 12.1162 4.80019 11.9974 3.70384 11.5433C2.60748 11.0891 1.67041 10.3201 1.01112 9.33342C0.351832 8.34672 -6.11033e-05 7.18669 -6.11033e-05 6C-6.11033e-05 4.4087 0.63208 2.88258 1.7573 1.75736C2.88252 0.632141 4.40864 0 5.99994 0V0ZM5.99994 11.1429C7.0171 11.1429 8.01142 10.8412 8.85716 10.2761C9.70289 9.71102 10.3621 8.90782 10.7513 7.96808C11.1406 7.02835 11.2424 5.99429 11.044 4.99668C10.8455 3.99906 10.3557 3.08269 9.63649 2.36345C8.91724 1.64421 8.00088 1.1544 7.00326 0.955961C6.00564 0.757523 4.97159 0.859369 4.03185 1.24862C3.09212 1.63787 2.28891 2.29704 1.72381 3.14278C1.15871 3.98852 0.857082 4.98284 0.857082 6C0.857082 7.36397 1.39892 8.67207 2.36339 9.63655C3.32786 10.601 4.63597 11.1429 5.99994 11.1429Z" fill="white"/>
<path d="M4.28568 5.14284C3.81229 5.14284 3.42854 4.75909 3.42854 4.2857C3.42854 3.81231 3.81229 3.42856 4.28568 3.42856C4.75907 3.42856 5.14282 3.81231 5.14282 4.2857C5.14282 4.75909 4.75907 5.14284 4.28568 5.14284Z" fill="white"/>
<path d="M7.71427 5.14284C7.24088 5.14284 6.85713 4.75909 6.85713 4.2857C6.85713 3.81231 7.24088 3.42856 7.71427 3.42856C8.18766 3.42856 8.57141 3.81231 8.57141 4.2857C8.57141 4.75909 8.18766 5.14284 7.71427 5.14284Z" fill="white"/>
<path d="M3.85713 6.85712H8.14284C8.2565 6.85712 8.36551 6.90227 8.44589 6.98264C8.52626 7.06301 8.57141 7.17202 8.57141 7.28569C8.57141 7.96767 8.30049 8.62173 7.81826 9.10396C7.33602 9.5862 6.68197 9.85712 5.99998 9.85712C5.318 9.85712 4.66394 9.5862 4.18171 9.10396C3.69947 8.62173 3.42856 7.96767 3.42856 7.28569C3.42856 7.17202 3.47371 7.06301 3.55408 6.98264C3.63445 6.90227 3.74346 6.85712 3.85713 6.85712ZM5.99998 8.99997C6.37981 8.99969 6.7488 8.87327 7.04899 8.64056C7.34919 8.40785 7.5636 8.08203 7.65855 7.71426H4.34141C4.43637 8.08203 4.65078 8.40785 4.95098 8.64056C5.25117 8.87327 5.62015 8.99969 5.99998 8.99997Z" fill="white"/>
</svg>
