<svg width="12" height="13" viewBox="0 0 12 13" fill="none" xmlns="http://www.w3.org/2000/svg">
<path d="M10.1506 2.52067C10.8524 2.97196 11.3886 3.61743 11.6413 4.3151C11.8941 5.01277 11.8426 5.70548 11.4984 6.24085L8.03659 11.6238C7.57753 12.3376 6.76559 12.7832 5.77939 12.8625C4.79318 12.9417 3.7135 12.6482 2.77785 12.0465C1.84221 11.4448 1.12724 10.5842 0.790248 9.65395C0.45325 8.72373 0.521824 7.80011 0.980883 7.08629L5.09173 0.694034C5.14911 0.604806 5.2506 0.549111 5.37388 0.539202C5.49716 0.529292 5.63212 0.56598 5.74907 0.641194C5.86603 0.716408 5.9554 0.823987 5.99752 0.940265C6.03965 1.05654 6.03107 1.172 5.97369 1.26122L1.86285 7.65348C1.51855 8.18885 1.46712 8.88156 1.71987 9.57923C1.97262 10.2769 2.50884 10.9224 3.21057 11.3737C3.91231 11.8249 4.72207 12.0451 5.46172 11.9856C6.20138 11.9261 6.81033 11.592 7.15463 11.0566L10.6164 5.67366C10.8459 5.31675 10.8802 4.85494 10.7117 4.38983C10.5432 3.92472 10.1857 3.4944 9.71791 3.19354C9.25008 2.89269 8.71024 2.74594 8.21714 2.78558C7.72404 2.82521 7.31807 3.04799 7.08854 3.4049L3.84313 8.45142C3.72837 8.62988 3.71123 8.86078 3.79547 9.09334C3.87972 9.32589 4.05846 9.54105 4.29238 9.69148C4.52629 9.84191 4.79621 9.91528 5.04276 9.89546C5.28931 9.87565 5.49229 9.76426 5.60706 9.5858L8.41974 5.21215C8.47713 5.12292 8.57862 5.06723 8.70189 5.05732C8.82517 5.04741 8.96013 5.0841 9.07709 5.15931C9.19404 5.23452 9.28341 5.3421 9.32554 5.45838C9.36766 5.57466 9.35909 5.69011 9.30171 5.77934L6.48902 10.153C6.25949 10.5099 5.85352 10.7327 5.36042 10.7723C4.86732 10.812 4.32748 10.6652 3.85965 10.3643C3.39183 10.0635 3.03435 9.63318 2.86585 9.16807C2.69735 8.70295 2.73164 8.24115 2.96117 7.88423L6.20657 2.83772C6.55087 2.30235 7.15982 1.96818 7.89948 1.90872C8.63913 1.84926 9.44889 2.06939 10.1506 2.52067Z" fill="white"/>
</svg>
