<svg width="356" height="730" viewBox="0 0 356 730" fill="none" xmlns="http://www.w3.org/2000/svg">
<path d="M58 371L59.6971 381.303L70 383L59.6971 384.697L58 395L56.3029 384.697L46 383L56.3029 381.303L58 371Z" fill="white"/>
<path d="M200 407L200.707 411.293L205 412L200.707 412.707L200 417L199.293 412.707L195 412L199.293 411.293L200 407Z" fill="white"/>
<path d="M344 330L345.697 340.303L356 342L345.697 343.697L344 354L342.303 343.697L332 342L342.303 340.303L344 330Z" fill="white"/>
<path d="M164 176L165.131 182.869L172 184L165.131 185.131L164 192L162.869 185.131L156 184L162.869 182.869L164 176Z" fill="white"/>
<path d="M86 82L86.7071 86.2929L91 87L86.7071 87.7071L86 92L85.2929 87.7071L81 87L85.2929 86.2929L86 82Z" fill="white"/>
<path d="M230 5L231.697 15.3029L242 17L231.697 18.6971L230 29L228.303 18.6971L218 17L228.303 15.3029L230 5Z" fill="white"/>
<path d="M49 720L49.7071 724.293L54 725L49.7071 725.707L49 730L48.2929 725.707L44 725L48.2929 724.293L49 720Z" fill="white"/>
<path d="M193 643L194.697 653.303L205 655L194.697 656.697L193 667L191.303 656.697L181 655L191.303 653.303L193 643Z" fill="white"/>
<path d="M13 489L14.1314 495.869L21 497L14.1314 498.131L13 505L11.8686 498.131L5 497L11.8686 495.869L13 489Z" fill="white"/>
</svg>
