<svg width="7" height="11" viewBox="0 0 7 11" fill="none" xmlns="http://www.w3.org/2000/svg">
<path d="M7 0.392855V1.17856C7 1.39553 6.8433 1.57142 6.65 1.57142H5.27714L3.52713 9.42858H4.55001C4.74331 9.42858 4.90001 9.60447 4.90001 9.82144V10.6071C4.90001 10.8241 4.74331 11 4.55001 11H0.349998C0.156702 11 0 10.8241 0 10.6071V9.82144C0 9.60447 0.156702 9.42858 0.349998 9.42858H1.72288L3.47289 1.57142H2.45003C2.25673 1.57142 2.10003 1.39553 2.10003 1.17856V0.392855C2.10003 0.17589 2.25673 0 2.45003 0H6.65004C6.84332 0 7 0.17589 7 0.392855Z" fill="white"/>
</svg>
