<svg width="52" height="52" viewBox="0 0 52 52" fill="none" xmlns="http://www.w3.org/2000/svg">
<path d="M46.0351 0.491547H5.90083C2.74742 0.491547 0.167358 3.01729 0.167358 6.10431V45.3937C0.167358 48.4807 2.74742 51.0064 5.90083 51.0064H46.0351C49.1885 51.0064 51.7686 48.4807 51.7686 45.3937V6.10431C51.7686 3.01729 49.1885 0.491547 46.0351 0.491547ZM5.90083 48.7613C4.00878 48.7613 2.46075 47.2459 2.46075 45.3937V40.7912L16.2211 26.2541L38.3523 48.7613H5.90083ZM49.4752 45.3937C49.4752 47.2459 47.9272 48.7613 46.0351 48.7613H41.5057L24.9933 31.923L37.7216 18.9575L49.4752 31.3618V45.3937ZM49.4752 28.0502L38.5816 16.5441L38.5243 16.4879C38.4669 16.4879 38.4669 16.4318 38.4096 16.4318C38.4096 16.4318 38.3523 16.3757 38.2949 16.3757C38.2376 16.3757 38.2376 16.3195 38.1803 16.3195C38.1229 16.3195 38.1229 16.3195 38.0656 16.2634H37.3776C37.3202 16.2634 37.3202 16.2634 37.2629 16.3195C37.2056 16.3195 37.2056 16.3757 37.1482 16.3757C37.0909 16.3757 37.0909 16.4318 37.0336 16.4318C36.9762 16.4318 36.9762 16.4879 36.9189 16.4879L36.8616 16.5441L23.3879 30.2953L17.0238 23.8406C17.0238 23.8406 16.9664 23.8406 16.9664 23.7845C16.9091 23.7284 16.9091 23.7284 16.8518 23.7284C16.8518 23.7284 16.7944 23.6723 16.7371 23.6723C16.6798 23.6723 16.6798 23.6161 16.6224 23.6161C16.5651 23.6161 16.5651 23.6161 16.5077 23.56H15.8197C15.7624 23.56 15.7624 23.56 15.7051 23.6161C15.6477 23.6161 15.6477 23.6161 15.5904 23.6723C15.5331 23.6723 15.5331 23.7284 15.4757 23.7284C15.4184 23.7284 15.4184 23.7845 15.3611 23.7845C15.3611 23.7845 15.3037 23.7845 15.3037 23.8406L2.46075 37.4797V6.10431C2.46075 4.2521 4.00878 2.73665 5.90083 2.73665H46.0351C47.9272 2.73665 49.4752 4.2521 49.4752 6.10431V28.0502ZM12.781 7.22686C9.62758 7.22686 7.04752 9.75261 7.04752 12.8396C7.04752 15.9267 9.62758 18.4524 12.781 18.4524C15.9344 18.4524 18.5145 15.9267 18.5145 12.8396C18.5145 9.75261 15.9344 7.22686 12.781 7.22686ZM12.781 16.2073C10.8889 16.2073 9.34091 14.6918 9.34091 12.8396C9.34091 10.9874 10.8889 9.47197 12.781 9.47197C14.673 9.47197 16.2211 10.9874 16.2211 12.8396C16.2211 14.6918 14.673 16.2073 12.781 16.2073Z" fill="#9197A4"/>
</svg>
