<svg width="16" height="16" viewBox="0 0 16 16" fill="none" xmlns="http://www.w3.org/2000/svg">
<path d="M8.00009 6.28159C8.00009 7.22941 7.22947 8.00003 6.28165 8.00003L3.0004 8.00003L3.0004 13.7816C3.0009 14.2372 3.18211 14.674 3.50427 14.9962C3.82643 15.3183 4.26324 15.4995 4.71884 15.5L13.7817 15.5C14.2373 15.4995 14.6741 15.3183 14.9962 14.9962C15.3184 14.674 15.4996 14.2372 15.5001 13.7816L15.5001 4.71878C15.5001 3.77097 14.7295 3.00034 13.7817 3.00034L8.00009 3.00034L8.00009 6.28159Z" fill="white"/>
<path d="M0.682551 1.5669L3.78849 4.67284L2.51161 5.94971C2.4464 6.01539 2.40204 6.09887 2.38411 6.18967C2.36618 6.28047 2.37548 6.37454 2.41084 6.46008C2.44619 6.54561 2.50603 6.61879 2.58284 6.67043C2.65965 6.72207 2.75 6.74987 2.84255 6.75034L6.28036 6.75034C6.40469 6.75034 6.52391 6.70095 6.61182 6.61304C6.69973 6.52513 6.74911 6.40591 6.74911 6.28159L6.74911 2.84377C6.74865 2.75133 6.72092 2.66108 6.6694 2.58433C6.61788 2.50758 6.54485 2.44774 6.45947 2.4123C6.37409 2.37687 6.28015 2.36742 6.18942 2.38514C6.09869 2.40285 6.01521 2.44695 5.94943 2.5119L4.67255 3.78877L1.56661 0.682836C1.5087 0.624726 1.43988 0.578621 1.36411 0.547162C1.28833 0.515703 1.2071 0.499508 1.12505 0.499508C1.04301 0.499508 0.961771 0.515703 0.885999 0.547162C0.810226 0.578621 0.741406 0.624726 0.683488 0.682836C0.566175 0.799969 0.500177 0.958894 0.500002 1.12467C0.499826 1.29045 0.565487 1.44952 0.682551 1.5669Z" fill="white"/>
</svg>
