<svg width="59" height="59" viewBox="0 0 59 59" fill="none" xmlns="http://www.w3.org/2000/svg">
<path d="M29.5 59C45.7924 59 59 45.7924 59 29.5C59 13.2076 45.7924 0 29.5 0C13.2076 0 0 13.2076 0 29.5C0 45.7924 13.2076 59 29.5 59Z" fill="#0B071B"/>
<path d="M58.5 29.5C58.5 45.5163 45.5163 58.5 29.5 58.5C13.4837 58.5 0.5 45.5163 0.5 29.5C0.5 13.4837 13.4837 0.5 29.5 0.5C45.5163 0.5 58.5 13.4837 58.5 29.5Z" stroke="url(#paint0_linear_5_1445)" stroke-opacity="0.6"/>
<path d="M47.2465 32.9842L50.7307 29.4071L47.1536 25.9228L49.0118 21.3236L44.4126 19.4653L44.3662 14.448L39.3488 14.5409L37.3977 9.9417L32.8449 11.8929L29.2677 8.40863L25.7835 11.9858L21.1378 10.1275L19.326 14.7267L14.3087 14.7732L14.3551 19.7905L9.80239 21.7417L11.7536 26.2945L8.26932 29.8716L11.8465 33.3559L9.98822 38.0015L14.5874 39.8598L14.6339 44.8307L19.6512 44.7842L21.6024 49.337L26.1551 47.3858L29.7323 50.87L33.2166 47.3393L37.8622 49.1976L39.674 44.5519L44.6914 44.5055L44.6449 39.5346L49.1977 37.537L47.2465 32.9842Z" fill="white"/>
<path d="M29.3142 14.5409C20.9985 14.6338 14.3087 21.463 14.4016 29.8252C14.4945 38.1409 21.3237 44.8307 29.6394 44.7378C38.0016 44.6449 44.6914 37.8157 44.5985 29.5C44.5056 21.1378 37.6764 14.448 29.3142 14.5409ZM29.6394 42.7401C22.3922 42.8331 16.4922 37.026 16.3993 29.7787C16.3063 22.5315 22.1134 16.6315 29.3607 16.5386C36.6079 16.4921 42.5079 22.2527 42.6008 29.5C42.6473 36.7472 36.8867 42.6472 29.6394 42.7401Z" fill="#E6E9EE"/>
<path d="M20.6267 29.6394C20.6267 27.1307 22.5779 25.0866 24.9937 25.0866C27.4094 25.0866 29.3606 27.1307 29.3606 29.6394C29.3606 32.148 27.4094 34.1921 24.9937 34.1921C22.5779 34.1921 20.6267 32.148 20.6267 29.6394ZM22.1598 29.6394C22.1598 31.3118 23.4606 32.6591 24.9937 32.6591C26.5732 32.6591 27.8275 31.3118 27.8275 29.6394C27.8275 27.9669 26.5267 26.6197 24.9937 26.6197C23.4141 26.6197 22.1598 27.9669 22.1598 29.6394Z" fill="#0B071B"/>
<path d="M21.1267 29.6394C21.1267 27.3863 22.8742 25.5866 24.9937 25.5866C27.1131 25.5866 28.8606 27.3863 28.8606 29.6394C28.8606 31.8924 27.1131 33.6921 24.9937 33.6921C22.8742 33.6921 21.1267 31.8924 21.1267 29.6394ZM21.6598 29.6394C21.6598 31.5618 23.159 33.1591 24.9937 33.1591C26.8799 33.1591 28.3275 31.5564 28.3275 29.6394C28.3275 27.7169 26.8283 26.1197 24.9937 26.1197C23.1074 26.1197 21.6598 27.7224 21.6598 29.6394Z" stroke="url(#paint1_linear_5_1445)" stroke-opacity="0.6"/>
<path d="M32.9842 29.6858L36.2362 26.4339C36.5149 26.1551 36.5149 25.6441 36.2362 25.3653C35.9575 25.0866 35.4464 25.0866 35.1677 25.3653L32.7055 27.8276V25.8299C32.7055 25.4118 32.3803 25.0866 31.9622 25.0866C31.5441 25.0866 31.2189 25.4118 31.2189 25.8299V33.4488C31.2189 33.8669 31.5441 34.1921 31.9622 34.1921C32.3803 34.1921 32.7055 33.8669 32.7055 33.4488V31.4976L35.1677 33.9598C35.3071 34.0992 35.4929 34.1921 35.7252 34.1921C35.9575 34.1921 36.0968 34.0992 36.2827 33.9598C36.5614 33.6811 36.5614 33.1701 36.2827 32.8913L32.9842 29.6858Z" fill="#0B071B"/>
<path d="M32.6307 29.3323L32.272 29.6909L32.6358 30.0444L35.9307 33.2465C36.007 33.3252 36.0117 33.4976 35.9449 33.5879C35.8762 33.6383 35.8396 33.6613 35.8099 33.6751C35.7878 33.6855 35.7669 33.6921 35.7252 33.6921C35.6394 33.6921 35.5771 33.6622 35.5212 33.6063L33.059 31.1441L32.2055 30.2905V31.4976V33.4488C32.2055 33.5908 32.1042 33.6921 31.9622 33.6921C31.8202 33.6921 31.7189 33.5908 31.7189 33.4488V25.8299C31.7189 25.688 31.8202 25.5866 31.9622 25.5866C32.1042 25.5866 32.2055 25.6879 32.2055 25.8299V27.8276V29.0347L33.059 28.1811L35.5212 25.7189C35.6047 25.6354 35.7992 25.6354 35.8826 25.7189L36.2345 25.367L35.8826 25.7189C35.9661 25.8024 35.9661 25.9968 35.8826 26.0803L32.6307 29.3323Z" stroke="url(#paint2_linear_5_1445)" stroke-opacity="0.6"/>
<defs>
<linearGradient id="paint0_linear_5_1445" x1="50.8875" y1="-15.8233" x2="71.0216" y2="23.6122" gradientUnits="userSpaceOnUse">
<stop offset="0.322917" stop-color="#00F0FF"/>
<stop offset="1" stop-color="#5200FF" stop-opacity="0"/>
</linearGradient>
<linearGradient id="paint1_linear_5_1445" x1="28.1597" y1="22.6446" x2="31.342" y2="28.6233" gradientUnits="userSpaceOnUse">
<stop offset="0.322917" stop-color="#00F0FF"/>
<stop offset="1" stop-color="#5200FF" stop-opacity="0"/>
</linearGradient>
<linearGradient id="paint2_linear_5_1445" x1="35.7667" y1="22.6446" x2="39.5728" y2="26.9615" gradientUnits="userSpaceOnUse">
<stop offset="0.322917" stop-color="#00F0FF"/>
<stop offset="1" stop-color="#5200FF" stop-opacity="0"/>
</linearGradient>
</defs>
</svg>
