<svg width="8" height="12" viewBox="0 0 8 12" fill="none" xmlns="http://www.w3.org/2000/svg">
<path d="M7.77765 5.50016H4.66481L4.31795 5.28517C3.17954 4.56519 2.18344 3.9502 2.18344 2.89023C2.18344 1.00028 4.31795 1.00027 4.40689 1.00027C4.83056 1.00169 5.25117 1.08107 5.65203 1.23527L5.25181 2.17025L6.05225 2.60523L6.66593 1.19527C6.7156 1.08055 6.7244 0.94882 6.6905 0.827051C6.6566 0.705282 6.58259 0.602691 6.4836 0.540286C5.83958 0.176644 5.12753 -0.00850364 4.40689 0.000299877C2.90828 0.000299877 1.29405 0.905277 1.29405 2.89023C1.29405 4.1002 2.00556 4.86018 2.89049 5.50016H0.222346C0.163376 5.50016 0.106822 5.5265 0.0651236 5.57338C0.0234257 5.62027 0 5.68385 0 5.75016V6.25014C0 6.31645 0.0234257 6.38003 0.0651236 6.42692C0.106822 6.4738 0.163376 6.50014 0.222346 6.50014H4.44247C5.41634 7.13012 6.22123 7.8001 6.22123 8.87008C6.22123 11 3.69539 11 3.58866 11C3.03497 10.9623 2.49153 10.815 1.98332 10.565L2.35242 9.91505L1.60534 9.37507L0.956087 10.5C0.92266 10.5589 0.900561 10.6249 0.891214 10.6939C0.881867 10.763 0.885479 10.8334 0.901816 10.9008C0.918153 10.9681 0.946855 11.0309 0.986072 11.085C1.02529 11.1391 1.07415 11.1834 1.12952 11.215C1.8953 11.6561 2.73099 11.9229 3.58866 12C4.80712 12 7.11062 11.345 7.11062 8.87008C7.10392 8.40732 7.00208 7.95259 6.81307 7.54145C6.62406 7.13031 6.35301 6.77391 6.02112 6.50014H7.77765C7.83662 6.50014 7.89318 6.4738 7.93488 6.42692C7.97657 6.38003 8 6.31645 8 6.25014V5.75016C8 5.68385 7.97657 5.62027 7.93488 5.57338C7.89318 5.5265 7.83662 5.50016 7.77765 5.50016Z" fill="white"/>
</svg>
